<svg display="none" xmlns="http://www.w3.org/2000/svg">

    <symbol id="img-menu-icon1" xmlns="http://www.w3.org/2000/svg" fill="#f5c506">
        <g>
            <path d="M82.75 75L24.84 75C11.68 75 1 64.46 1 51.45C1 40.77 8.25 31.86 18.12 28.98C18.1 28.62 18.03 28.27 18.03 27.91C18.03 18.62 25.66 11.09 35.06 11.09C36.95 11.09 38.73 11.46 40.42 12.02C45.38 5.37 53.3 1 62.31 1C75.27 1 86.06 9.95 88.83 21.91C100.94 24.64 110 35.3 110 48.09C110 62.95 97.8 75 82.75 75ZM62.31 48.09L62.31 27.91L48.69 27.91L48.69 48.09L38.26 48.09L55.5 65.12L72.74 48.09L62.31 48.09Z"/>
        </g>
    </symbol>
    <symbol id="img-menu-icon2" xmlns="http://www.w3.org/2000/svg" fill="#f5c506">
        <g>
            <path d="M75.64 56.57C70.95 86.68 39.71 88.76 22.24 87.51C21.08 92.69 20.63 96 20.63 96L12.04 96C12.04 96 23.11 54.03 48.89 31.73C53.69 27.43 59.02 23.71 65.01 21.02C37.19 31.22 17.79 65.82 9.15 84.22C5.23 78.36 -5.99 58.13 6.73 33.69C20.06 8.06 92 1 92 1C92 1 81.31 20.18 75.64 56.57Z"/>
        </g>
    </symbol>
    <symbol id="img-menu-icon3" xmlns="http://www.w3.org/2000/svg" fill="#f5c506">
        <g>
            <path d="M60.23 51.81L60.23 75.95L49.69 62.28L27.83 84L1 1L82 30.18L60.23 51.81ZM8.59 8.88L54.66 57.34L60.06 51.97L8.59 8.88Z"/>
        </g>
    </symbol>

</svg>