<!--
<svg display="none" xmlns="http://www.w3.org/2000/svg">
<defs>
  <g id="img-head-nav-icon1">
    <path xmlns="http://www.w3.org/2000/svg" fill="#b99403"
          d="M1 20L4.55 14.82L9 14.82L14.06 14.82L18.51 14.82L22 20L1 20ZM11.53 13.95C8.64 13.95 6.29 10.77 6.29 7.91L6.29 6.18C6.29 3.32 8.64 1 11.53 1C14.42 1 16.76 3.32 16.76 6.18L16.76 7.91C16.76 10.77 14.42 13.95 11.53 13.95Z"/>
  </g>
  <g id="img-head-nav-icon2">
    <path xmlns="http://www.w3.org/2000/svg" fill="#b99403"
          d="M14.96 2.58C14 3.53 14 5.08 14.96 6.03C15.91 6.99 17.46 6.99 18.42 6.03L19.82 4.63C19.92 5.04 20 5.45 20 5.88C20 8.58 17.81 10.77 15.11 10.77C14.67 10.77 14.25 10.69 13.84 10.58C13.83 10.6 13.82 10.61 13.81 10.63L5.16 19.26C4.2 20.22 2.65 20.22 1.7 19.26C0.74 18.31 0.74 16.76 1.7 15.81L10.35 7.18C10.36 7.16 10.38 7.16 10.4 7.14C10.29 6.74 10.21 6.32 10.21 5.88C10.21 3.19 12.4 1 15.11 1C15.54 1 15.96 1.07 16.36 1.18L14.96 2.58ZM3.48 16.87C3.15 16.87 2.87 17.14 2.87 17.48C2.87 17.82 3.15 18.09 3.48 18.09C3.82 18.09 4.1 17.82 4.1 17.48C4.1 17.14 3.82 16.87 3.48 16.87Z"/>
  </g>
  <g id="img-head-nav-icon3">
    <path xmlns="http://www.w3.org/2000/svg" fill="#b99403"
          d="M24.74 18.3L16.46 10.02L22.58 3.9L24.76 1.73C24.9 1.96 25 2.21 25 2.5L25 17.5C25 17.8 24.89 18.06 24.74 18.3ZM22.05 3.37L19.26 6.16L13.91 11.51L12.98 12.45L3.95 3.41L2.45 1.91L1.76 1.23C1.98 1.1 2.22 1 2.5 1L23.5 1C23.76 1 24 1.09 24.22 1.21L23.46 1.96L22.05 3.37ZM1.91 2.45L9.47 10L1.23 18.24C1.1 18.02 1 17.78 1 17.5L1 2.5C1 2.22 1.1 1.98 1.23 1.76L1.91 2.45L1.91 2.45ZM10 10.53L10.32 10.85L10.43 10.96L11.46 11.99L12.96 13.49L13.02 13.43L13.04 13.44L14.45 12.04L15.93 10.55L24.19 18.81C23.98 18.92 23.75 19 23.5 19L2.5 19C2.22 19 1.98 18.9 1.76 18.77L10 10.53Z"/>
  </g>
</defs>
</svg>
-->

<svg display="none" xmlns="http://www.w3.org/2000/svg">
<symbol  xmlns="http://www.w3.org/2000/svg" fill="#b99403"  id="img-head-nav-icon1">
  <g>
    <path
          d="M1 20L4.55 14.82L9 14.82L14.06 14.82L18.51 14.82L22 20L1 20ZM11.53 13.95C8.64 13.95 6.29 10.77 6.29 7.91L6.29 6.18C6.29 3.32 8.64 1 11.53 1C14.42 1 16.76 3.32 16.76 6.18L16.76 7.91C16.76 10.77 14.42 13.95 11.53 13.95Z"/>
  </g>
</symbol>
<symbol  xmlns="http://www.w3.org/2000/svg" fill="#b99403"  id="img-head-nav-icon2">
  <g>
    <path
          d="M14.96 2.58C14 3.53 14 5.08 14.96 6.03C15.91 6.99 17.46 6.99 18.42 6.03L19.82 4.63C19.92 5.04 20 5.45 20 5.88C20 8.58 17.81 10.77 15.11 10.77C14.67 10.77 14.25 10.69 13.84 10.58C13.83 10.6 13.82 10.61 13.81 10.63L5.16 19.26C4.2 20.22 2.65 20.22 1.7 19.26C0.74 18.31 0.74 16.76 1.7 15.81L10.35 7.18C10.36 7.16 10.38 7.16 10.4 7.14C10.29 6.74 10.21 6.32 10.21 5.88C10.21 3.19 12.4 1 15.11 1C15.54 1 15.96 1.07 16.36 1.18L14.96 2.58ZM3.48 16.87C3.15 16.87 2.87 17.14 2.87 17.48C2.87 17.82 3.15 18.09 3.48 18.09C3.82 18.09 4.1 17.82 4.1 17.48C4.1 17.14 3.82 16.87 3.48 16.87Z"/>
  </g>
</symbol>
<symbol xmlns="http://www.w3.org/2000/svg" fill="#b99403"  id="img-head-nav-icon3">
  <g>
    <path
          d="M24.74 18.3L16.46 10.02L22.58 3.9L24.76 1.73C24.9 1.96 25 2.21 25 2.5L25 17.5C25 17.8 24.89 18.06 24.74 18.3ZM22.05 3.37L19.26 6.16L13.91 11.51L12.98 12.45L3.95 3.41L2.45 1.91L1.76 1.23C1.98 1.1 2.22 1 2.5 1L23.5 1C23.76 1 24 1.09 24.22 1.21L23.46 1.96L22.05 3.37ZM1.91 2.45L9.47 10L1.23 18.24C1.1 18.02 1 17.78 1 17.5L1 2.5C1 2.22 1.1 1.98 1.23 1.76L1.91 2.45L1.91 2.45ZM10 10.53L10.32 10.85L10.43 10.96L11.46 11.99L12.96 13.49L13.02 13.43L13.04 13.44L14.45 12.04L15.93 10.55L24.19 18.81C23.98 18.92 23.75 19 23.5 19L2.5 19C2.22 19 1.98 18.9 1.76 18.77L10 10.53Z"/>
  </g>
</symbol>
</svg>
